<svg xmlns="http://www.w3.org/2000/svg" xmlns:xlink="http://www.w3.org/1999/xlink" width="457.247" height="325.393" viewBox="0 0 457.247 325.393"><defs><linearGradient id="a" x1="0.5" x2="0.5" y2="1" gradientUnits="objectBoundingBox"><stop offset="0" stop-color="#4640e1"/><stop offset="1" stop-color="#62e9e1"/></linearGradient><filter id="b" x="171.084" y="105.577" width="177.586" height="125.269" filterUnits="userSpaceOnUse"><feOffset dy="3" input="SourceAlpha"/><feGaussianBlur stdDeviation="3" result="c"/><feFlood flood-opacity="0.161"/><feComposite operator="in" in2="c"/><feComposite in="SourceGraphic"/></filter></defs><g transform="translate(845.596 6072.268)"><g transform="translate(-1164.273 -6219.641)"><g transform="translate(346.091 429.306)" opacity="0.5"><path d="M336.984,354.993c0,5.565,70.622,10.08,157.747,10.08s157.735-4.515,157.735-10.08S581.844,344.91,494.731,344.91,336.984,349.424,336.984,354.993Z" transform="translate(-336.984 -344.91)" fill="#c6c7cb"/></g><path d="M428.657,362.838c0,3.484-17.928,6.307-40.044,6.307s-40.044-2.824-40.044-6.307,17.928-6.307,40.044-6.307S428.657,359.355,428.657,362.838Z" transform="translate(13.692 88.995)" fill="#cdccff" opacity="0.5"/><ellipse cx="67.189" cy="4.991" rx="67.189" ry="4.991" transform="translate(641.547 448.16)" fill="#c6c7cb" opacity="0.5"/><g transform="translate(349.799 340.441)"><path d="M349,302.548l-2.58,36.134h34.468l-2.375-36.2Z" transform="translate(-336.957 -272.836)" opacity="0.26" fill="url(#a)"/><g transform="translate(18.88 31.858)"><g transform="translate(0 0.026)"><path d="M353.167,305.089h0a1.105,1.105,0,0,1,1.181-1h0a1.014,1.014,0,1,1,0,2h0A1.107,1.107,0,0,1,353.167,305.089Zm1.182-.622a.64.64,0,1,0,0,1.238h0a.64.64,0,1,0,0-1.238Zm-1,.621h0Z" transform="translate(-353.167 -304.085)" fill="#eae6ff"/></g><g transform="translate(11.751)"><path d="M361.586,305.068h0a.922.922,0,0,1,.276-.648,1.279,1.279,0,0,1,.9-.354h0a1.1,1.1,0,0,1,1.181,1,.919.919,0,0,1-.357.72,1.292,1.292,0,0,1-.822.282h0A1.105,1.105,0,0,1,361.586,305.068Zm1.179-.621a.9.9,0,0,0-.632.244.533.533,0,0,0-.166.375h0a.732.732,0,0,0,.8.617h0a.917.917,0,0,0,.581-.2.551.551,0,0,0,.218-.424.729.729,0,0,0-.8-.617Z" transform="translate(-361.586 -304.066)" fill="#eae6ff"/></g><path d="M359.662,312.186c.11,0,.222,0,.335-.006a6.346,6.346,0,0,0,4.895-2.067,7.346,7.346,0,0,0,1.375-5.277.377.377,0,0,0-.431-.322.382.382,0,0,0-.325.431,6.675,6.675,0,0,1-1.207,4.683,5.623,5.623,0,0,1-4.331,1.789,5.121,5.121,0,0,1-4.19-1.463c-1.683-1.873-1.269-4.952-1.265-4.983a.382.382,0,0,0-.757-.109c-.019.141-.47,3.456,1.45,5.6A5.685,5.685,0,0,0,359.662,312.186Z" transform="translate(-352.956 -303.891)" fill="#fff"/></g><path d="M361.051,309.8l-4.119,26.865,37.422-.088-3.789-26.847Z" transform="translate(-332.797 -269.964)" fill="#4640e1" opacity="0.32"/><path d="M352.105,342.284a7.59,7.59,0,1,0,7.59,7.59A7.591,7.591,0,0,0,352.105,342.284Zm0,11.114a3.524,3.524,0,1,1,3.538-3.524A3.522,3.522,0,0,1,352.105,353.4Z" transform="translate(-337.711 -257.083)" fill="#121e52"/><path d="M351.211,342.284a7.59,7.59,0,1,0,7.59,7.59A7.592,7.592,0,0,0,351.211,342.284Zm0,11.114a3.524,3.524,0,1,1,3.538-3.524A3.523,3.523,0,0,1,351.211,353.4Z" transform="translate(-338.065 -257.083)" fill="#676c84"/><path d="M382.829,342.284a7.59,7.59,0,1,0,7.59,7.59A7.592,7.592,0,0,0,382.829,342.284Zm0,11.114a3.524,3.524,0,1,1,3.54-3.524A3.521,3.521,0,0,1,382.829,353.4Z" transform="translate(-325.552 -257.083)" fill="#121e52"/><path d="M381.935,342.284a7.59,7.59,0,1,0,7.59,7.59A7.591,7.591,0,0,0,381.935,342.284Zm0,11.114a3.524,3.524,0,1,1,3.54-3.524A3.521,3.521,0,0,1,381.935,353.4Z" transform="translate(-325.906 -257.083)" fill="#676c84"/><path d="M433.768,281.241H410.961a6.946,6.946,0,0,0-5.9,3.274L391.28,306.649" transform="translate(-319.204 -281.241)" fill="none" stroke="#4640e1" stroke-miterlimit="10" stroke-width="1.5"/><path d="M350.44,341.05H401.4a5.526,5.526,0,0,0,5.456-4.651l5.273-32.9a5.526,5.526,0,0,0-5.456-6.4H345.167a5.526,5.526,0,0,0-5.456,6.4l5.275,32.9A5.524,5.524,0,0,0,350.44,341.05Z" transform="translate(-339.64 -274.963)" fill="none" stroke="#4640e1" stroke-miterlimit="10" stroke-width="1.5"/><line y2="43.946" transform="translate(36.282 22.141)" fill="none" stroke="#4640e1" stroke-miterlimit="10" stroke-width="1.5"/><line x1="67.429" transform="translate(2.568 44.114)" fill="none" stroke="#4640e1" stroke-miterlimit="10" stroke-width="1.5"/><line x1="4.361" y2="43.946" transform="translate(52.049 22.141)" fill="none" stroke="#4640e1" stroke-miterlimit="10" stroke-width="1.5"/><line x2="4.026" y2="43.946" transform="translate(17.16 22.141)" fill="none" stroke="#4640e1" stroke-miterlimit="10" stroke-width="1.5"/><path d="M404.929,327.158l8.257,12.278a5.031,5.031,0,0,1-4.175,7.837H341.48" transform="translate(-338.912 -263.07)" fill="none" stroke="#4640e1" stroke-miterlimit="10" stroke-width="1.5"/></g><g transform="translate(437.525 242.145)"><rect width="69.91" height="18.806" transform="translate(85.852 168.216)" fill="#121e52"/><rect width="242.351" height="174.356" rx="9.387" transform="translate(0)" fill="#676c84"/><path d="M5.768,0h216.54a5.768,5.768,0,0,1,5.768,5.768V145.5a5.768,5.768,0,0,1-5.768,5.768H5.768A5.768,5.768,0,0,1,0,145.5V5.768A5.768,5.768,0,0,1,5.768,0Z" transform="translate(6.769 6.357)" fill="#fff"/><path d="M7.322,0H122.687a7.322,7.322,0,0,1,7.322,7.322v4.534a0,0,0,0,1,0,0H0a0,0,0,0,1,0,0V7.322A7.322,7.322,0,0,1,7.322,0Z" transform="translate(55.803 185.387)" fill="#676c84"/><g transform="translate(61.236 16.805)" opacity="0.35"><g transform="matrix(1, 0, 0, 1, -180.08, -111.58)" filter="url(#b)"><rect width="159.586" height="107.269" rx="5.01" transform="translate(180.08 111.58)" fill="#fff"/></g></g><g transform="translate(61.236 16.805)" style="mix-blend-mode:multiply;isolation:isolate"><g transform="translate(10.576 16.221)"><g transform="translate(4.591 62.138)"><rect width="6.951" height="17.452" fill="#fca70c"/></g><g transform="translate(20.255 46.818)"><rect width="6.952" height="32.772" fill="#b1affd"/></g><g transform="translate(35.92 50.207)"><rect width="6.951" height="29.383" fill="#fca70c"/></g><g transform="translate(51.584 33.617)"><rect width="6.952" height="45.973" fill="#b1affd"/></g><g transform="translate(20.255 46.818)" opacity="0.15" style="mix-blend-mode:multiply;isolation:isolate"><rect width="3.191" height="32.772" opacity="0.26"/></g><g transform="translate(4.591 62.138)" opacity="0.15" style="mix-blend-mode:multiply;isolation:isolate"><rect width="3.19" height="17.452" opacity="0.26"/></g><g transform="translate(51.584 33.617)" opacity="0.62" style="mix-blend-mode:multiply;isolation:isolate"><rect width="3.191" height="45.973" opacity="0.26"/></g><g transform="translate(35.92 50.207)" opacity="0.15" style="mix-blend-mode:multiply;isolation:isolate"><rect width="3.191" height="29.383" opacity="0.26"/></g><g transform="translate(0 18.147)"><path d="M516.157,313.726H453.943V247.48h.949v65.3h61.265Z" transform="translate(-453.943 -247.48)" fill="#d5dbda"/></g><g transform="translate(5.756 23.748)"><path d="M458.7,281.71l-.634-.706,16.275-14.614,15.074,3.275,16.323-18.172.706.634-16.692,18.582-15.139-3.289Z" transform="translate(-458.068 -251.492)" fill="#d5dbda"/></g><g transform="translate(50.811 21.063)"><path d="M494.95,255.573l-4.6-4.414,5.942-1.59Z" transform="translate(-490.347 -249.569)" fill="#d5dbda"/></g><g transform="translate(68.105 60.901)"><rect width="4.774" height="4.774" fill="#b1affd"/><g transform="translate(0 8.364)"><rect width="4.774" height="4.774" fill="#fca70c"/></g><g transform="translate(6.089 10.426)"><rect width="15.133" height="2.713" fill="#efefef"/></g><g transform="translate(6.089 2.061)"><rect width="15.133" height="2.713" fill="#efefef"/></g></g><g transform="translate(96.181 60.901)"><rect width="4.774" height="4.774" fill="#b1affd"/><g transform="translate(0 8.364)"><rect width="4.774" height="4.774" fill="#fca70c"/></g><g transform="translate(6.089 10.426)"><rect width="15.133" height="2.713" fill="#efefef"/></g><g transform="translate(6.089 2.061)"><rect width="15.133" height="2.713" fill="#efefef"/></g></g><g transform="translate(121.462 60.901)"><rect width="4.774" height="4.774" fill="#b1affd"/><g transform="translate(0 8.364)"><rect width="4.774" height="4.774" fill="#fca70c"/></g><g transform="translate(6.089 10.426)"><rect width="9.958" height="2.713" fill="#efefef"/></g><g transform="translate(6.089 2.061)"><rect width="9.958" height="2.713" fill="#efefef"/></g></g><g transform="translate(68.999 15.288)"><rect width="68.51" height="1.246" fill="#efefef"/></g><rect width="137.509" height="2.851" fill="#efefef"/><g transform="translate(68.793 19.162)"><rect width="68.716" height="1.245" fill="#efefef"/></g><g transform="translate(68.793 11.414)"><rect width="68.716" height="1.246" fill="#efefef"/></g><g transform="translate(68.793 23.035)"><rect width="68.716" height="1.246" fill="#efefef"/></g><g transform="translate(68.793 26.909)"><rect width="68.716" height="1.245" fill="#efefef"/></g><g transform="translate(68.793 30.782)"><rect width="68.716" height="1.246" fill="#efefef"/></g><g transform="translate(68.793 34.656)"><rect width="68.716" height="1.245" fill="#efefef"/></g><g transform="translate(68.793 38.529)"><rect width="68.716" height="1.245" fill="#efefef"/></g><g transform="translate(68.793 42.403)"><rect width="68.716" height="1.246" fill="#efefef"/></g><g transform="translate(77.206 46.277)"><rect width="60.303" height="1.246" fill="#efefef"/></g></g><path d="M598.959,222.856h-145.6a6.993,6.993,0,0,0-6.993,6.993v6.12H605.951v-6.12A6.993,6.993,0,0,0,598.959,222.856Z" transform="translate(-446.366 -222.856)" fill="#4640e1"/><path d="M547.14,228.3a2.016,2.016,0,1,1-2.016-2.015A2.016,2.016,0,0,1,547.14,228.3Z" transform="translate(-408.081 -221.501)" fill="#cfcfff"/><circle cx="2.016" cy="2.016" r="2.016" transform="translate(143.246 4.78)" fill="#cfcfff"/><circle cx="2.016" cy="2.016" r="2.016" transform="translate(151.463 4.78)" fill="#cfcfff"/></g><g transform="translate(18.844 36.356)"><g transform="translate(0 4.177)"><rect width="159.585" height="107.269" rx="5.01" fill="#c6c7cb" opacity="0.55" style="mix-blend-mode:multiply;isolation:isolate"/></g><g transform="translate(3.238)"><rect width="159.585" height="107.269" rx="5.01" fill="#fff"/></g><g transform="translate(13.813 16.221)"><g transform="translate(4.591 62.138)"><rect width="6.951" height="17.452" fill="#fca70c"/></g><g transform="translate(20.255 46.818)"><rect width="6.952" height="32.772" fill="#b1affd"/></g><g transform="translate(35.92 50.207)"><rect width="6.951" height="29.383" fill="#fca70c"/></g><g transform="translate(51.584 33.617)"><rect width="6.952" height="45.973" fill="#b1affd"/></g><g transform="translate(20.255 46.818)" opacity="0.15" style="mix-blend-mode:multiply;isolation:isolate"><rect width="3.191" height="32.772" opacity="0.26"/></g><g transform="translate(4.591 62.138)" opacity="0.15" style="mix-blend-mode:multiply;isolation:isolate"><rect width="3.191" height="17.452" opacity="0.26"/></g><g transform="translate(51.584 33.617)" opacity="0.62" style="mix-blend-mode:multiply;isolation:isolate"><rect width="3.19" height="45.973" opacity="0.26"/></g><g transform="translate(35.92 50.207)" opacity="0.15" style="mix-blend-mode:multiply;isolation:isolate"><rect width="3.191" height="29.383" opacity="0.26"/></g><g transform="translate(0 24.065)"><path d="M488.1,326.055H425.891V265.727h.949v59.38H488.1Z" transform="translate(-425.891 -265.727)" fill="#d5dbda"/></g><g transform="translate(5.756 23.748)"><path d="M430.649,295.717l-.634-.706L446.289,280.4l15.075,3.275L477.687,265.5l.706.634L461.7,284.716l-15.139-3.289Z" transform="translate(-430.015 -265.499)" fill="#d5dbda"/></g><g transform="translate(50.811 21.064)"><path d="M466.9,269.58l-4.6-4.414,5.942-1.59Z" transform="translate(-462.295 -263.576)" fill="#d5dbda"/></g><g transform="translate(68.105 60.901)"><rect width="4.774" height="4.774" fill="#b1affd"/><g transform="translate(0 8.364)"><rect width="4.774" height="4.774" fill="#fca70c"/></g><g transform="translate(6.089 10.426)"><rect width="15.133" height="2.713" fill="#efefef"/></g><g transform="translate(6.089 2.061)"><rect width="15.133" height="2.713" fill="#efefef"/></g></g><g transform="translate(96.181 60.901)"><rect width="4.774" height="4.774" fill="#b1affd"/><g transform="translate(0 8.364)"><rect width="4.774" height="4.774" fill="#fca70c"/></g><g transform="translate(6.089 10.426)"><rect width="15.133" height="2.713" fill="#efefef"/></g><g transform="translate(6.089 2.061)"><rect width="15.133" height="2.713" fill="#efefef"/></g></g><g transform="translate(121.462 60.901)"><rect width="4.774" height="4.774" fill="#b1affd"/><g transform="translate(0 8.364)"><rect width="4.774" height="4.774" fill="#fca70c"/></g><g transform="translate(6.089 10.426)"><rect width="9.958" height="2.713" fill="#efefef"/></g><g transform="translate(6.089 2.061)"><rect width="9.958" height="2.713" fill="#efefef"/></g></g><g transform="translate(68.999 15.288)"><rect width="68.51" height="1.246" fill="#efefef"/></g><rect width="137.509" height="2.851" fill="#efefef"/><g transform="translate(68.794 19.162)"><rect width="68.716" height="1.245" fill="#efefef"/></g><g transform="translate(68.794 11.414)"><rect width="68.716" height="1.246" fill="#efefef"/></g><g transform="translate(68.794 23.035)"><rect width="68.716" height="1.246" fill="#efefef"/></g><g transform="translate(68.794 26.909)"><rect width="68.716" height="1.245" fill="#efefef"/></g><g transform="translate(68.794 30.782)"><rect width="68.716" height="1.246" fill="#efefef"/></g><g transform="translate(68.794 34.656)"><rect width="68.716" height="1.245" fill="#efefef"/></g><g transform="translate(68.794 38.529)"><rect width="68.716" height="1.245" fill="#efefef"/></g><g transform="translate(68.794 42.403)"><rect width="68.716" height="1.246" fill="#efefef"/></g><g transform="translate(77.206 46.277)"><rect width="60.303" height="1.246" fill="#efefef"/></g></g><path d="M570.907,236.863h-145.6a6.993,6.993,0,0,0-6.993,6.993v6.12H577.9v-6.12A6.993,6.993,0,0,0,570.907,236.863Z" transform="translate(-415.076 -236.863)" fill="#4640e1"/><path d="M519.088,242.3a2.016,2.016,0,1,1-2.017-2.015A2.017,2.017,0,0,1,519.088,242.3Z" transform="translate(-376.791 -235.508)" fill="#cfcfff"/><path d="M524.977,242.3a2.017,2.017,0,1,1-2.017-2.015A2.017,2.017,0,0,1,524.977,242.3Z" transform="translate(-374.461 -235.508)" fill="#cfcfff"/><path d="M530.863,242.3a2.016,2.016,0,1,1-2.015-2.015A2.017,2.017,0,0,1,530.863,242.3Z" transform="translate(-372.131 -235.508)" fill="#cfcfff"/></g><path d="M579.162,210.9H541.791q.383,18.177.617,36.358a14.413,14.413,0,0,1-.676,5.478l-.057,0c-.5-.027-.276.128-.447,1.015,0,.013-.008.028-.011.04-1.512,2.468-4.461,3.817-7.332,4.452a.728.728,0,0,0,.046.4.918.918,0,0,0-.289,1.129c.174.4,2.323.953,5.24.639a13.915,13.915,0,0,0,3.237-.9,5.024,5.024,0,0,0,1.192-.812,4.117,4.117,0,0,0,1.093-.264l.119.112,3.344-1.456s-.366-2.11-.655-3.209a1.91,1.91,0,0,0-.22-.516,153.29,153.29,0,0,0,6.561-23.322c-.608,9.844-4.145,29.841-4.408,30.529a5.133,5.133,0,0,1-4.25,2.984c-.791.066-4.684-.159-4.264,1.632.1.427,2.122,1.341,5.05,1.537a13.87,13.87,0,0,0,3.343-.322,6.2,6.2,0,0,0,2.084-1.135l.451.6,3.545-.854s-.006-.923-.028-2.034a4.523,4.523,0,0,0-.759-2.162l.049-2.017,1.965-.232s3.947-12.767,5.822-17.109a38.225,38.225,0,0,0,2.122-5.439,39.371,39.371,0,0,0,.814-6.806,60.169,60.169,0,0,1,2.283-12.287,1.811,1.811,0,0,1,.333-.717,1.9,1.9,0,0,1,1.293-.451c5.023-.461,7.326.394,10.469-.581,4.144-1.286,4.584-3.166,4.786-3.256A13.042,13.042,0,0,0,579.162,210.9Z" transform="translate(-350.626 -210.781)" fill="#5851bc" opacity="0.35" style="mix-blend-mode:multiply;isolation:isolate"/><path d="M584.121,283.124V239.783c-6.464,8.461-12.859,16.044-19.323,24.505-2.805,3.669-13.789,15.829-6.3,20.709,1.912,1.245,5.242,1.188,6.906,1.3,5.977.424,11.9-1.23,17.709-2.872C583.451,283.336,583.788,283.234,584.121,283.124Z" transform="translate(-341.771 -199.352)" fill="#5851bc" opacity="0.35" style="mix-blend-mode:multiply;isolation:isolate"/><path d="M582.608,278.744l-3.6.278-.068-.2-2.8.216-.843-2.383a3.614,3.614,0,0,0-3.53-2.24,1.929,1.929,0,0,0-1.789,2.676c.147.412.556,1.567.836,2.359l-2.946.228.063.205-6.069.47c-.959.006-2.375,1.244-2.068,2.109l.049.127a1.255,1.255,0,0,0,.028.225l5.249,14.812-.133,62.386h6.092L582.608,315.2Zm-9.467-.463a2.026,2.026,0,0,1-1.981-1.258,1.08,1.08,0,0,1,1-1.5,2.026,2.026,0,0,1,1.979,1.256A1.082,1.082,0,0,1,573.141,278.281Z" transform="translate(-340.258 -185.652)" fill="#5851bc" opacity="0.35" style="mix-blend-mode:multiply;isolation:isolate"/><path d="M417.725,259.86a30.52,30.52,0,0,0-3.6,6.049,6.018,6.018,0,0,1-3.361,3.023c-2.666,1.22-5.523,2.387-8.267,3.466v7.078c5.582-3.357,10.634-6.489,10.719-6.522,4.267,1.632,7.836-1.916,8.98-4.475.514-1.149-.257-1.618-.292-2.163-.02-.285.348-1.946.292-2.159-.334-1.495-4.346-.188-4.013-.9a5.1,5.1,0,0,1,1.671-2.5c1.965-1.341,3.471-2.829,3.471-3.393C423.32,256.389,418.19,259.349,417.725,259.86Z" transform="translate(-402.493 -192.473)" fill="#5851bc" opacity="0.35" style="mix-blend-mode:multiply;isolation:isolate"/></g><g transform="translate(668.965 345.502)"><rect width="94.226" height="108.966" rx="6.949" fill="#676c84"/><g transform="translate(8.716 11.405)"><rect width="79.689" height="22.382" rx="1.773" fill="#c6c7cb"/><rect width="20.491" height="14.207" rx="1.773" transform="translate(0 30.319)" fill="#c6c7cb"/><rect width="20.491" height="14.207" rx="1.773" transform="translate(29.599 30.319)" fill="#c6c7cb"/><rect width="20.491" height="14.207" rx="1.773" transform="translate(59.199 30.319)" fill="#c6c7cb"/><rect width="20.491" height="14.207" rx="1.773" transform="translate(0 53.158)" fill="#c6c7cb"/><rect width="20.491" height="14.207" rx="1.773" transform="translate(29.599 53.158)" fill="#c6c7cb"/><rect width="20.491" height="14.207" rx="1.773" transform="translate(0 75.997)" fill="#c6c7cb"/><rect width="20.491" height="14.207" rx="1.773" transform="translate(29.599 75.997)" fill="#c6c7cb"/><rect width="20.491" height="37.047" rx="1.773" transform="translate(59.199 53.158)" fill="#c6c7cb"/></g><g transform="translate(7.268 9.957)" opacity="0.45"><path d="M573.518,294.476A2.475,2.475,0,0,1,575.993,292h74.741a2.475,2.475,0,0,1,2.475,2.475v17.431a2.474,2.474,0,0,1-2.475,2.475H575.993" transform="translate(-573.518 -292.001)" fill="#e2deff"/><rect width="20.491" height="14.207" rx="1.773" transform="translate(0.001 30.319)" fill="#e2deff"/><rect width="20.491" height="14.207" rx="1.773" transform="translate(29.6 30.319)" fill="#e2deff"/><rect width="20.491" height="14.207" rx="1.773" transform="translate(59.199 30.319)" fill="#e2deff"/><rect width="20.491" height="14.207" rx="1.773" transform="translate(0.001 53.158)" fill="#e2deff"/><rect width="20.491" height="14.207" rx="1.773" transform="translate(29.6 53.158)" fill="#e2deff"/><rect width="20.491" height="14.207" rx="1.773" transform="translate(0.001 75.997)" fill="#e2deff"/><rect width="20.491" height="14.207" rx="1.773" transform="translate(29.6 75.997)" fill="#e2deff"/></g><rect width="20.491" height="37.047" rx="1.773" transform="translate(66.467 63.115)" fill="#ec2786"/><path d="M617.379,366.106v-32.1a2.474,2.474,0,0,1,2.475-2.475H635.4a2.469,2.469,0,0,1,.864.163,2.47,2.47,0,0,0-2.311-1.612H618.407a2.475,2.475,0,0,0-2.475,2.476v32.1a2.47,2.47,0,0,0,1.611,2.311A2.461,2.461,0,0,1,617.379,366.106Z" transform="translate(-549.465 -266.972)" fill="#ea4c89"/><path d="M568.311,307.329l2.525,6.642H581.4s-.733,28.72-.779,34.1,4.43,42.524,4.43,42.524h6.116l-.638-46.826L599.2,319.75s6.525,32.162,9.23,37.543S625.669,390.6,625.669,390.6h5.611l-14.408-61.586-6.186-21.4L579.5,293.038l-11.191,1.1" transform="translate(-568.311 -281.633)" fill="#5851bc" opacity="0.35" style="mix-blend-mode:multiply;isolation:isolate"/></g><g transform="translate(453.066 394.974)"><path d="M418.551,320.4,413.627,371.4l48.373.011-4.679-51.1Z" transform="translate(-413.627 -320.312)" fill="#4ddc74"/><g transform="translate(13.358 3.176)"><g transform="translate(0 0.04)"><path d="M423.2,324.155h0a1.694,1.694,0,0,1,1.81-1.538h0a1.556,1.556,0,1,1,.006,3.069h0A1.7,1.7,0,0,1,423.2,324.155Zm1.812-.953a.981.981,0,1,0,0,1.9h0a.981.981,0,1,0,0-1.9Zm-1.527.953h0Z" transform="translate(-423.198 -322.617)" fill="#fff"/></g><g transform="translate(18.029)"><path d="M436.115,324.126h0a1.4,1.4,0,0,1,.424-.994,1.951,1.951,0,0,1,1.383-.544h.008a1.691,1.691,0,0,1,1.812,1.528,1.412,1.412,0,0,1-.549,1.105,1.988,1.988,0,0,1-1.26.434h0A1.7,1.7,0,0,1,436.115,324.126Zm1.809-.953a1.37,1.37,0,0,0-.97.374.813.813,0,0,0-.254.576h0a1.121,1.121,0,0,0,1.23.946h0a1.413,1.413,0,0,0,.89-.3.847.847,0,0,0,.335-.65,1.118,1.118,0,0,0-1.228-.946Z" transform="translate(-436.115 -322.588)" fill="#fff"/></g></g><g transform="translate(14.507 4.122)"><path d="M433.167,335.046c.169,0,.339,0,.515-.008,3.312-.11,5.838-1.178,7.508-3.171,2.764-3.3,2.138-7.9,2.11-8.1a.586.586,0,0,0-1.16.166c.006.043.576,4.292-1.854,7.185-1.446,1.722-3.682,2.646-6.645,2.745-2.868.085-5.005-.659-6.429-2.243-2.582-2.875-1.947-7.6-1.94-7.647a.587.587,0,0,0-1.161-.166c-.029.215-.722,5.3,2.225,8.591A8.736,8.736,0,0,0,433.167,335.046Z" transform="translate(-424.021 -323.266)" fill="#676c84"/></g></g><g transform="translate(319.087 267.603)"><path d="M386.019,238.411c1.872,3.233.255,7.65,2.144,10.873.756,1.29,2.036,2.3,2.4,3.755a3.273,3.273,0,0,1-4.706,3.686,4,4,0,0,0-.727-.36c-.934-.274-1.78.556-2.582,1.1a3.941,3.941,0,0,1-3.4.6,5.044,5.044,0,0,1-2.831-3.4c-1.351-4.056-.391-8.5.857-12.587.624-2.043,1.545-4.31,3.549-5.051" transform="translate(-294.674 -225.899)" fill="#676c84"/><path d="M427.477,266.547c.031.449.716.836.26,1.782-1.016,2.11-4.183,5.034-7.971,3.69-.165.059-20.925,12.059-22.525,12.059s-12.495-10.31-16.058-23.067c-.85-3.044-.519-6.624,2.332-8.165a6.746,6.746,0,0,1,3.921,3.489c2.36,4.455,9.428,19.208,10.994,19.765,1.953-1.3,11.459-4.126,19.158-7.4a5.21,5.21,0,0,0,2.984-2.494,24.825,24.825,0,0,1,3.2-4.987c.412-.422,4.967-2.861,4.967-2.06,0,.463-1.337,1.692-3.08,2.8a4.175,4.175,0,0,0-1.482,2.063c-.3.586,3.265-.49,3.561.743C427.787,264.942,427.462,266.312,427.477,266.547Z" transform="translate(-292.65 -219.641)" fill="#ffbe9d"/><path d="M382.883,252.577a9.351,9.351,0,0,1,6.2,4.808,19.369,19.369,0,0,1,.844,1.937c1.105,2.814,2.627,5.36,3.732,8.172a16.557,16.557,0,0,1-4.882,2.355,10.431,10.431,0,0,1-4.545.61,2.3,2.3,0,0,1-.765-.169,2.52,2.52,0,0,1-.8-.684q-.71-.814-1.382-1.661a4.561,4.561,0,0,1-.928-1.588,4.823,4.823,0,0,1,.218-2.475" transform="translate(-292.848 -219.748)" fill="#7762ef"/><path d="M384.446,258.177a.963.963,0,0,0-.356-.3.645.645,0,0,0-.747.331,1.714,1.714,0,0,0-.155.867,11.829,11.829,0,0,0,.53,3.368l-.353,5.933.008.013a10.412,10.412,0,0,0,4.25-.62c.642-.239,1.334-.486,2.032-.768C388.943,263.654,386.664,260.822,384.446,258.177Z" transform="translate(-291.695 -217.664)" fill="#7762ef" opacity="0.35" style="mix-blend-mode:multiply;isolation:isolate"/><path d="M381.572,248.664s-.08,3.715.491,3.958a14.56,14.56,0,0,0,2.4.743l.038,7.688-10.25-1.545-7.051-3.925s7.329-2.43,7.393-3.16-.4-4.843-.4-4.843" transform="translate(-298.022 -221.725)" fill="#ffbe9d"/><g transform="translate(65.703 81.968)"><path d="M366.809,332.2l-.006.029c-2.8,13.3-1.468,31.562-2.094,41.571.147.04,3.81.5,3.81.5s8.673-42.189,10.248-50.269a11.436,11.436,0,0,0,.2-1.565c.378-6.08-5.1-6.39-8.189-1.364a21.038,21.038,0,0,0-1.413,2.713c-.174.4-.336.8-.505,1.227l0,.014A39.569,39.569,0,0,0,367.5,329.3l-.032.154c-.128.426-.233.857-.336,1.29l-.021.1C367,331.288,366.907,331.737,366.809,332.2Z" transform="translate(-364.71 -275.984)" fill="#ffbe9d"/><path d="M382.574,296.279c-.1,1.1-.69,6.335-1.394,12.51-.6,5.192-1.26,11.045-1.774,15.68-.381,3.475-.66,6.247-.777,7.552a16.914,16.914,0,0,1-.308,2.244v.029c-1.32,6.072-5.515,6.425-8.066,5.016a5.1,5.1,0,0,1-.969-.66,3.259,3.259,0,0,1-1.086-1.789v-.014c-.161-1.248-.322-2.949-.469-4.973v-.029c-.014-.014-.014-.014-.014-.029l-.015-.043c-.308-3.946-.572-9.021-.807-13.963-.278-6.073-.455-11.925-.5-15.225-.015-.191-.015-.367-.029-.543-.045-10.119,9.255-16.6,15.034-13.463a1.474,1.474,0,0,1,.205.1,2.17,2.17,0,0,0,.221.133c.66.44.879,1.95.895,3.681C382.75,293.756,382.662,295.135,382.574,296.279Z" transform="translate(-364.054 -287.783)" fill="#ffbe9d"/><path d="M368.485,321.98l-.708-2.651c0,.014,0,.014.007.032a42.378,42.378,0,0,1-.879,9.255l-.032.154c-.1.419-.208.864-.336,1.29l-.021.1a7.221,7.221,0,0,0-.3,1.358l-.006.029c-.008,1.2,2.551-4.136,3.138-5.383.073-.159.117-.25.117-.25l-.692-2.78Z" transform="translate(-364.116 -275.298)" fill="#ffbe9d"/></g><g transform="translate(82.45 81.526)"><path d="M382.2,334.658v.029c-.265,13.921,4.034,30.29,5.171,40.4.138,0,3.512-.451,3.512-.451s.642-42.65.687-51.077a12.764,12.764,0,0,0-.085-1.607c-.691-6.14-5.672-5.087-7.6.677a24.9,24.9,0,0,0-.811,3.05c-.088.438-.166.878-.244,1.346v.015a45.857,45.857,0,0,0-.5,4.559l0,.162c-.043.455-.064.91-.084,1.365l0,.1C382.214,333.7,382.206,334.172,382.2,334.658Z" transform="translate(-374.542 -275.459)" fill="#ffbe9d"/><path d="M387.257,340.987a3.625,3.625,0,0,1-.978-.427,2.789,2.789,0,0,1-1.28-1.507v-.015c-.366-1.2-.8-2.874-1.284-4.85-.011-.017-.011-.017-.01-.032l-.021-.05c-.939-3.84-2.055-8.823-3.094-13.671-1.277-5.968-2.436-11.749-3.03-15.031-.047-.177-.561-2.567-.6-2.743-1.784-10.169,6.148-16.8,11.913-14.858l.225.078c1.16.465,1.481,4.542,1.742,7.3s2.219,31.311,2.709,36.474a20.624,20.624,0,0,1,.1,2.314C393.515,340.349,389.8,341.748,387.257,340.987Z" transform="translate(-376.709 -287.466)" fill="#ffbe9d"/><path d="M382.805,323.378l-1.087-2.461c0,.015,0,.015.011.031a47.33,47.33,0,0,1,.78,9.423l0,.162c-.021.441-.04.911-.084,1.365l0,.1a8.386,8.386,0,0,0-.039,1.426v.029c.2,1.2,1.594-4.747,1.909-6.134.038-.176.063-.278.063-.278l-1.1-2.593Z" transform="translate(-374.726 -274.228)" fill="#ffb9b0"/></g><path d="M371.75,280.2s-7.464,9.483-6.7,19.011c.318,3.965.811,7.46,1.262,11.451.066.575.96,8.954.708,8.962,0,0,15.381,4.753,30.24-1.474,0-1.016,1.189-20.517-6.838-39.112A129.357,129.357,0,0,1,371.75,280.2Z" transform="translate(-298.894 -209.274)" fill="#4640e1"/><path d="M394.831,269.191c-.059,2.716-1.5,4.37-3.577,6.659-.262.408-.906,6.464-1.125,10.489-.114,2.1.78,3.411,0,3.583-2.984,2.6-13.737,4.711-18.669,1.159.516-4.379-1.445-14.025-2.768-18.929-.207-.755-.388-1.393-.553-1.884-1.232-3.725-3.457-15.671-1.81-16.192.328-.1.837-.237,1.428-.416,2.578-.777,6.387-2.113,6.387-2.113s2.235,6.61,8.044,7.409c3.171-1.306,2.892-5.316,2.854-7.16,1.037.286,1.493.571,4.708,1.523.9,1.3.123,4.01,1.579,8.052C391.69,262.374,394.9,265.882,394.831,269.191Z" transform="translate(-298.599 -220.155)" fill="url(#a)"/><path d="M388.044,237.872s.588,7.181-.638,10.945c-.907,2.787-4.632,5.389-7.748,5.354-8.575,0-10.114-11.647-10.069-12.211s12.648-5.452,12.648-5.452Z" transform="translate(-297.077 -226.107)" fill="#ffbe9d"/><path d="M383.456,288.237" transform="translate(-291.589 -205.635)" fill="#f2f2f2"/><g transform="translate(93.936 180.184)"><path d="M398.3,363.153c-3.053.55-6.314-.308-7.651-.077-1.106.188-3.944.909-5.007-.046s-.892-4.325.329-4.775a4.385,4.385,0,0,0,.793.191,8.346,8.346,0,0,0,3.614-.3c2.323.956,2.408,1.373,5.048,1.907a17.161,17.161,0,0,1,3.364,1.02C399.927,361.6,400.018,362.846,398.3,363.153Z" transform="translate(-384.938 -358.151)" fill="#121e52"/></g><g transform="translate(63.804 177.831)"><path d="M373.892,365.165c-3.058-.515-4.994-2.207-6.331-2.44-1.1-.2-3.886-.738-4.177-1.879-.216-.847.624-4.371,1.925-4.381a4.459,4.459,0,0,0,.681.448,8.365,8.365,0,0,0,3.5.942c1.863,1.685,1.8,2.106,4.108,3.5a17.151,17.151,0,0,1,2.821,2.1C377.315,364.327,375.616,365.455,373.892,365.165Z" transform="translate(-363.35 -356.465)" fill="#121e52"/></g><g transform="translate(29.779 32.938)"><path d="M338.972,263.456l2.808-3.341,17.134,15.321s8.366-11.135,10.666-14.612c2.53-3.823,4.811-7.093,8.511-7.732.853.526-.288,14.258-.733,14.59-5.17,3.868-15.229,16.343-18.428,16.992C355.237,285.421,338.972,263.456,338.972,263.456Z" transform="translate(-338.972 -252.482)" fill="#ffbe9d"/><path d="M371.793,252.655s-3.5.045-5.005,1.284-8.7,12.639-8.7,12.639a5.068,5.068,0,0,0,1.891,3.96,10.5,10.5,0,0,0,5.18,2.242s3.609-3.593,5.644-5.227c1.267-1.019,1.393,1.5,1.393,1.5l6.365-6.214Z" transform="translate(-331.407 -252.655)" fill="#7762ef"/></g><path d="M367.363,261.512c-.191-.1-.378-.212-.56-.321a4.717,4.717,0,0,1-2.3-2.32c-.6-1.609-.882-4.078-.049-5.639.565-1.057,1.626-1.747,2.353-2.7a8.335,8.335,0,0,0,1.387-4.688,30.925,30.925,0,0,1,.334-4.948c.593-2.766,1.382-5.4,3.515-7.184,3.415-2.856,10.262-4.547,13.985-1.364.677.579.81,1.044,1.724,1.133a6.725,6.725,0,0,1,3.125.913c1.221.706,2.7,1.7,2.532,3.305a5.746,5.746,0,0,1-2.329,3.39,2.825,2.825,0,0,1-1.316.295c-1.452.028-2.656-.916-4.081-.763a2.713,2.713,0,0,0-1.787.992c-.514.634-.444,1.517-1.043,2.109-.962.951-2.452.87-3.591,1.488a1.205,1.205,0,0,0-.491.4,1.294,1.294,0,0,0-.124.61l-.066,1.8c-.565-.248-.624-1.052-1.09-1.457a1.3,1.3,0,0,0-1.633.1,2.738,2.738,0,0,0-.787,1.566,4.5,4.5,0,0,0,.317,2.148c.373,1.223,1.421,2.324,2.267,1.516.614.9-.057,2.411-.079,3.431-.018.81,0,2.415.754,2.946.7.49,1.8.119,1.842,1.379a2.425,2.425,0,0,1-2.261,2.2,8.482,8.482,0,0,1-3.385-.59,5.306,5.306,0,0,0-3.393-.166,10.264,10.264,0,0,1-1.905.857A2.984,2.984,0,0,1,367.363,261.512Z" transform="translate(-299.313 -228.434)" fill="#676c84"/><path d="M347.779,263.8s-4.027-3.228-4.3-4.112-.334-1.83-.666-2.694a5.042,5.042,0,0,0-2.794-2.78c-1.009-.416-.515-.758-1.6-.549-1.632.315-2.406,1.915-3.058,3.166-2.782,5.33,4.836,6.339,5.1,6.351.555.022,3.39,3.235,3.39,3.235" transform="translate(-310.863 -219.34)" fill="#ffbe9d"/><g transform="translate(9.769 7.608)"><path d="M335.068,262.068l2.758,1.841a.76.76,0,0,0,1.073-.243l6.059-10.153-3.591-2.024-6.5,9.518A.76.76,0,0,0,335.068,262.068Z" transform="translate(-320.641 -227.786)" fill="#676c84"/><path d="M328.249,245.35l.949.646,3.838-5.594-.949-.646a3.209,3.209,0,0,0-4.364,1.131h0A3.186,3.186,0,0,0,328.249,245.35Z" transform="translate(-323.676 -232.612)" fill="url(#a)"/><path d="M325.4,253.8l17.656,2.681,4.033-5.877-8.91-15.426Z" transform="translate(-324.334 -234.242)" fill="#676c84"/><path d="M326.206,250.439l16.528,2.436,1.607-2.342-13.91-6.25Z" transform="translate(-324.014 -230.638)" fill="#676c84"/><path d="M343.486,255h0a2.246,2.246,0,0,0,3.053-.79l.716-1.045a2.228,2.228,0,0,0-.367-3.121h0a2.246,2.246,0,0,0-3.053.79l-.717,1.045A2.227,2.227,0,0,0,343.486,255Z" transform="translate(-317.505 -228.487)" fill="#676c84"/><path d="M343.834,250.58l-.715,1.044a2.088,2.088,0,1,0,3.42,2.329l.716-1.043a2.325,2.325,0,0,0,.147-.246,2.051,2.051,0,1,1-3.39-2.31A2.373,2.373,0,0,0,343.834,250.58Z" transform="translate(-317.504 -228.235)" fill="#676c84"/><path d="M325.123,254.642h0a1.318,1.318,0,0,0,1.792-.463l12.112-17.649a1.31,1.31,0,0,0-.216-1.834h0a1.317,1.317,0,0,0-1.792.465L324.907,252.81A1.31,1.31,0,0,0,325.123,254.642Z" transform="translate(-324.635 -234.507)" fill="#121e52"/><path d="M339.121,234.883l-10.087,14.7a1.319,1.319,0,0,1-1.792.465,1.1,1.1,0,0,1-.31-.336l-2.025,2.951a1.227,1.227,0,1,0,2.009,1.369l12.112-17.651A1.39,1.39,0,0,0,339.121,234.883Z" transform="translate(-324.635 -234.358)" fill="#121e52"/><path d="M339.586,255.264l1.143.779a4.006,4.006,0,0,0,5.449-1.411l1.136-1.654a3.978,3.978,0,0,0-.657-5.573l-1.143-.779a4.006,4.006,0,0,0-5.449,1.411l-1.136,1.654A3.978,3.978,0,0,0,339.586,255.264Z" transform="translate(-319.306 -229.938)" fill="#121e52"/><path d="M339.3,248.594l-1.7,2.477a1.258,1.258,0,0,0,.208,1.764l5.316,3.623a1.269,1.269,0,0,0,1.725-.447l1.7-2.477a1.269,1.269,0,0,1-1.725.447L339.5,250.36A1.261,1.261,0,0,1,339.3,248.594Z" transform="translate(-319.61 -228.932)" fill="#121e52"/></g><path d="M335.413,258.843a5.554,5.554,0,0,1,.97-4.15,8.916,8.916,0,0,1,.99-1.066,1.367,1.367,0,0,1,.6-.394,1.879,1.879,0,0,1,1.291.292,2.35,2.35,0,0,1,1.058,1.051,1.4,1.4,0,0,1-.776,1.686.291.291,0,0,0-.142.141c-.032.1.035.219.1.328a2.4,2.4,0,0,1,.409,1.378.807.807,0,0,1-.948.709c-.208-.034-.486-.114-.554.045a.34.34,0,0,0,0,.18,1.475,1.475,0,0,1-.321,1.163.407.407,0,0,1-.255.161.675.675,0,0,1-.268-.036,3.64,3.64,0,0,1-.944-.419" transform="translate(-310.627 -219.5)" fill="#ffbe9d"/><path d="M341.935,259.918a21.138,21.138,0,0,1-.329-2.166,4.927,4.927,0,0,0-2.329-4.05.59.59,0,0,0-.378-.109.417.417,0,0,0-.308.363,1.122,1.122,0,0,0,.074.5c.163.512.89,1.474.666,2a5.99,5.99,0,0,0-.575,2.511c.025.766.382,2.01,1.29,2.135" transform="translate(-309.347 -219.347)" fill="#ffbe9d"/><line x2="3.552" y2="8.376" transform="translate(12.113)" stroke-width="0.75" stroke="#4640e1" stroke-linecap="round" stroke-linejoin="round" fill="none"/><line x2="7.28" y2="5.456" transform="translate(4.695 7.449)" stroke-width="0.75" stroke="#4640e1" stroke-linecap="round" stroke-linejoin="round" fill="none"/><line x2="9.054" y2="0.889" transform="translate(0 17.595)" stroke-width="0.75" stroke="#4640e1" stroke-linecap="round" stroke-linejoin="round" fill="none"/></g><g transform="translate(592.382 162.682)"><g transform="translate(0 3.787)"><path d="M530.217,181.673s-3.252-2.295-3.368-3.258a22.275,22.275,0,0,0-3.108-5.646c-.724-.777-4.537-2.1-5.35-2.215s-5.48.281-4.9.917,3.6.4,4.182.754l.581.348s-.581.789-.349,1.265-1,1.212-.532,2.024-.188.758.228,1.606c.687,1.4,2.444,2.18,2.909,1.8.349.829,1.682,2.521,2.931,2.4s4.285,2.729,4.285,2.729" transform="translate(-513.442 -151.081)" fill="#ffb9b0"/><path d="M564.44,166.819c.11,2.184-.045,5.988.581,6.552s2.644.476,2.644.476-7.216,9.124-7.861,8.623-9.18-7.456-7.262-7.816,3.8-.282,3.741-1.274l-.163-2.979" transform="translate(-498.08 -152.552)" fill="#ffb9b0"/><path d="M574.178,213.624s-14.079,1.6-17.32,1.665-3.08-1.626-3.08-1.626c-.165-3.568-.769-11.974-1.44-14.823-.625-2.66-.9-3.643-1.447-6.171-1.211-5.618-1.158-6.691-2.441-13.625l8.409-6.76s.871,2.586,4.4,2.631c4.712.06,6.178-3.24,6.178-3.24l11.47,7.615,1.076,18.524-1.372,15.256" transform="translate(-499.589 -150.63)" fill="#fca70c"/><path d="M565.257,168.885a24.483,24.483,0,0,1-.992,3.237,3.668,3.668,0,0,1-3.884,2.676l-4.312.1c-1.1.027-2.476.064-3.366-.71s-.9-2.059-1.1-3.122q-.375-2.039-.611-4.1a60.3,60.3,0,0,1-.38-8.111,5.8,5.8,0,0,1,.1-1.11.8.8,0,0,1,.184-.408.9.9,0,0,1,.518-.2,44.248,44.248,0,0,1,8.15-.522,9.255,9.255,0,0,1,5.487,1.457c1.534,1.185,2.261,3.111,2.917,4.935.1.293.183.684-.071.863" transform="translate(-498.737 -156.597)" fill="#ffb9b0"/><g transform="translate(21.516 61.727)"><g transform="translate(6.253 49.529)"><path d="M538.476,238.268a30.715,30.715,0,0,0,.84,3.757c.373.956,3.513.074,3.721-.544s-.988-5.173-.988-5.173" transform="translate(-531.304 -236.308)" fill="#ed9c80"/><path d="M546.164,240.9c.272,1.031.616,3.013.616,3.013l-3.14,1.366-.515-.483a5.808,5.808,0,0,1-1.742,1.389,13.048,13.048,0,0,1-3.039.843c-2.741.294-4.758-.221-4.921-.6-.68-1.588,2.958-2.014,3.679-2.2a4.819,4.819,0,0,0,3.445-3.452c.161-.832-.046-.978.419-.953a1.107,1.107,0,0,1,.786.37,1.983,1.983,0,0,0,2.23.518,2.371,2.371,0,0,0,1.112-.927A1.37,1.37,0,0,1,546.164,240.9Z" transform="translate(-533.338 -234.934)" fill="#38287c"/></g><path d="M556.159,215.647a53.2,53.2,0,0,1-16.029.38c.694,1.989,2.394,4.536,3.041,7.336,2.138,9.244,2.881,21.663,3.424,29.346,0,0-1.026,1.972-4.317.47-4.916-12.142-13.5-36.749-13.42-42.087.1-6.8,17.064-8.437,29.5-10.112" transform="translate(-528.858 -200.76)" fill="#453087"/><path d="M577.3,202.1c3.91,2.854-21.669,13.607-21.669,13.607a42.6,42.6,0,0,1-8.383.8,6.109,6.109,0,0,1-.624-1.586c-.151-.743-.07-1.516-.2-2.261a5.257,5.257,0,0,0-2.556-3.445,11.5,11.5,0,0,0-4.18-1.354,56.05,56.05,0,0,0-9.5-.167c7.688-5.667,23.416-6.408,30.743-6.874C562.337,203.133,576.739,201.693,577.3,202.1Z" transform="translate(-528.329 -200.822)" fill="#38287c"/><g transform="translate(12.87 56.641)"><path d="M544.285,242.712a30.734,30.734,0,0,0,.176,3.847c.2,1.008,3.448.683,3.759.109s-.077-5.265-.077-5.265" transform="translate(-535.623 -241.403)" fill="#ed9c80"/><path d="M551.615,246.434c.089,1.065.084,3.075.084,3.075l-3.329.8-.424-.567a5.8,5.8,0,0,1-1.955,1.066,13.047,13.047,0,0,1-3.14.3c-2.75-.184-4.646-1.041-4.741-1.443-.395-1.682,3.26-1.471,4-1.533a4.82,4.82,0,0,0,3.99-2.8c.3-.791.126-.971.579-.865a1.107,1.107,0,0,1,.709.5,1.981,1.981,0,0,0,2.108.9,2.372,2.372,0,0,0,1.256-.719A1.369,1.369,0,0,1,551.615,246.434Z" transform="translate(-538.079 -240.2)" fill="#38287c"/></g><path d="M581.037,201.334a158.422,158.422,0,0,1-17.328.553c-2.214,0-18.953,3.14-20.554,5.977-2.634,4.666,1.718,31.935,1.315,51.457,0,0,2.007,1.675,5.556.1.882-9.59,6.549-32.214,2.639-42.775,9.229,1.224,16.674,2.441,25.062-.339a6.7,6.7,0,0,0,4.316-4.575C582.929,209.182,582.467,203.612,581.037,201.334Z" transform="translate(-523.536 -200.619)" fill="#453087"/></g><g transform="translate(10.766 21.655)"><path d="M567.659,172.112s-2.011.11-2.4.142a18.48,18.48,0,0,0-4.972.941c-2.281.844-3.89,2.966-5.746,4.626-1.788,1.6-11.053,10.425-12.781,10.75s-16.9-10.07-16.9-10.07l-3.7,3.7s16.46,15.209,21.369,15.236c2.383.013,15.522-6.9,19.727-9.593Z" transform="translate(-521.156 -172.112)" fill="#fca70c"/><path d="M542.563,191.861c-3.383.191-18.89-11.652-20.688-13.034l-.719.719s16.46,15.209,21.369,15.236c1.986.01,11.437-4.79,16.965-7.947l1.432-.83-.858-5.114S546.157,191.659,542.563,191.861Z" transform="translate(-521.156 -169.454)" fill="#ce4a30" opacity="0.25" style="mix-blend-mode:multiply;isolation:isolate"/></g><g transform="translate(8.616 41.413)"><path d="M527.083,210.339h37.68l-6.757-22.025a2.9,2.9,0,0,0-2.768-2.046h-33a1.877,1.877,0,0,0-1.795,2.429Z" transform="translate(-519.32 -186.268)" fill="#676c84"/><path d="M526.9,210.339h37.111l-6.755-22.025a2.9,2.9,0,0,0-2.769-2.046h-33a1.878,1.878,0,0,0-1.8,2.429l6.472,21.1A.767.767,0,0,0,526.9,210.339Z" transform="translate(-519.615 -186.268)" fill="#676c84"/></g><path d="M573.176,182.9c-1.875,8.479-2.207,15.115-2.737,21.178-6.584,2.556-9.265,6.36-15.708,9.227,0,0-5.087-.844-5.621,1.075-.308,1.107,5.956,1.988,5.956,1.988,5.971.028,21.718-4.335,22.783-4.628s4.169-20.31,4.293-31.173c.017-1.542-.038-3.217-1-4.42a5.793,5.793,0,0,0-1.943-1.438,27.088,27.088,0,0,0-12.023-3.033" transform="translate(-499.331 -150.63)" fill="#ce4a30" opacity="0.25" style="mix-blend-mode:multiply;isolation:isolate"/><path d="M556.763,202.725a3.771,3.771,0,0,0-3.135-.992,23,23,0,0,0-2.518.2c-.38.052-.818.141-.857.553s1.845,0,2.833.285a49.789,49.789,0,0,1-5.826.159,1.67,1.67,0,0,0-.671.068.558.558,0,0,0-.377.511.7.7,0,0,0,.267.444,3.955,3.955,0,0,0,2,.807,15.435,15.435,0,0,0,8.856-.782" transform="translate(-500.474 -138.736)" fill="#ffb9b0"/><path d="M571.17,182.742c-.155,9.064-.8,13.212-.623,22.276-4.55.973-10.849,6.125-17.292,8.993a3.4,3.4,0,0,0,.214,2.357c.491.18,21.732-4.991,23.421-6.547,1.52-1.4,3.531-18.39,3.655-29.253.017-1.542-.038-3.217-1-4.42a5.792,5.792,0,0,0-1.943-1.438,27.088,27.088,0,0,0-12.023-3.033" transform="translate(-497.734 -150.63)" fill="#fca70c"/><g transform="translate(24.368 50.331)"><path d="M541.592,196.155c.134,1.932-2.148,3.5-5.1,3.5s-5.452-1.565-5.587-3.5,2.148-3.5,5.1-3.5S541.457,194.223,541.592,196.155Z" transform="translate(-530.901 -192.657)" fill="none" stroke="#a4a4f7" stroke-miterlimit="10" stroke-width="1" opacity="0.45"/><ellipse cx="1.944" cy="3.398" rx="1.944" ry="3.398" transform="matrix(0.039, -0.999, 0.999, 0.039, 1.878, 5.307)" fill="#a4a4f7"/></g></g><path d="M559.167,161.348c-.071-.339-.824-.406-1.58-.311a12.039,12.039,0,0,0-3.184.671c-.415.322-.391.554-.611.579s-.232-.2-.713-.413a6.4,6.4,0,0,0-2.4.032c-.755.095-1.474.262-1.458.609a1.936,1.936,0,0,0,.3,1.044c.154.1.154.08.748,1.446a1.443,1.443,0,0,0,1.82.988c1.244-.271,1.322-1.687,1.418-2.279s.186-.68.374-.7.318.036.558.586.413,1.817,1.687,1.888c1.668.094,2.391-.477,2.623-1.546.313-1.45.242-1.456.367-1.587a7.9,7.9,0,0,1,1.246.106l-.028-.433A9.423,9.423,0,0,1,559.167,161.348Zm-6.058,2.918a1.452,1.452,0,0,1-1.23,1.521c-.765.1-1.115-.31-1.53-1.29a2.534,2.534,0,0,1-.247-1.767c.13-.234.543-.226,1.492-.286s1.267-.081,1.421.338A5.154,5.154,0,0,1,553.109,164.267Zm5.438-.8c-.158,1.051-.543,1.556-1.591,1.682-1.485.179-1.771-.408-1.99-1.115a5.16,5.16,0,0,1-.278-1.461c.046-.442.357-.5,1.292-.678s2.184-.4,2.369-.2A2.528,2.528,0,0,1,558.547,163.467Z" transform="translate(-499.284 -151.068)" fill="#483a99"/><path d="M569.533,161.848a16.057,16.057,0,0,0-.415-2.235,7.12,7.12,0,0,0-3.481-4.563,11.131,11.131,0,0,0-7.876-.784c-1.442.4-1.976,1.163-2.719,1.142a8.166,8.166,0,0,1-2.017-.664c-5.635-2.025-4.69,3.491-4.09,5.005.267.67,1.544,1.158,1.714,1.436a17.186,17.186,0,0,1,.26,2.244,1.19,1.19,0,0,0,.7.829s.031-1.775.059-2.015a2.236,2.236,0,0,1,.833-1.664,5.17,5.17,0,0,1,2.027-.569,15.437,15.437,0,0,1,4.147.687c1.052.9,1.323,2.963,1.619,4.175.137.565.28.945.511.937.174-1.668.754-1.71,1.752-1.14a2.906,2.906,0,0,1,.849,2.256,2.38,2.38,0,0,1-1.682,2.462c-.4.085.8,2.36,1.358,2.928a3.033,3.033,0,0,0,.588.516,2.693,2.693,0,0,0,.678.251l.805.219a2.108,2.108,0,0,0,1.107.095c.595-.168.909-.8,1.177-1.355.44-.913.946-1.8,1.307-2.747A16.313,16.313,0,0,0,569.533,161.848Z" transform="translate(-499.578 -153.884)" fill="#483a99"/></g><g transform="translate(692.549 212.328)"><path d="M656.528,231.279h-71.32l8.541-6.319V194.113a4.661,4.661,0,0,1,4.66-4.66h58.119a4.66,4.66,0,0,1,4.66,4.66v32.506A4.66,4.66,0,0,1,656.528,231.279Z" transform="translate(-585.208 -189.453)" fill="url(#a)"/><g transform="translate(14.156 6.016)"><rect width="32.594" height="3.119" transform="translate(23.034)" fill="#fff" opacity="0.45"/><rect width="32.594" height="3.119" transform="translate(23.034 4.659)" fill="#fff" opacity="0.45"/><rect width="32.594" height="3.119" transform="translate(23.034 9.318)" fill="#fff" opacity="0.45"/><rect width="32.594" height="3.119" transform="translate(23.034 13.858)" fill="#fff" opacity="0.45"/><rect width="22.73" height="3.119" transform="translate(23.034 19.289)" fill="#fff" opacity="0.45"/><rect width="20.474" height="23.94" rx="3.385" fill="#62e9e1"/><rect width="20.474" height="2.57" transform="translate(0 26.921)" fill="#fff" opacity="0.45"/><g transform="translate(2.47 5.361)"><path d="M606.906,206.916h-7.43a.926.926,0,0,1-.895-.684l-1.429-5.279a.927.927,0,0,1,.895-1.168h10.288a.925.925,0,0,1,.895,1.168l-1.429,5.279A.926.926,0,0,1,606.906,206.916Z" transform="translate(-597.12 -196.741)" fill="#fff"/><g transform="translate(1.963)"><path d="M607.658,208.967H598.71a.185.185,0,0,1,0-.37h8.809l3.114-10.859a.184.184,0,0,1,.177-.134h1.947a.185.185,0,0,1,0,.37h-1.807l-3.114,10.859A.184.184,0,0,1,607.658,208.967Z" transform="translate(-598.526 -197.604)" fill="#fff"/></g><g transform="translate(1.353 11.735)"><path d="M600.254,207.094a1.082,1.082,0,1,1-1.083-1.082A1.083,1.083,0,0,1,600.254,207.094Z" transform="translate(-598.089 -206.012)" fill="#fff"/><circle cx="1.082" cy="1.082" r="1.082" transform="translate(7.868)" fill="#fff"/></g></g></g></g><g transform="translate(492.985 147.373)"><path d="M448.165,206.617h90.867l-10.883-8.051V148.851a5.936,5.936,0,0,0-5.937-5.936H448.165a5.936,5.936,0,0,0-5.937,5.936v51.828A5.937,5.937,0,0,0,448.165,206.617Z" transform="translate(-442.228 -142.915)" fill="#62e9e1" opacity="0.31"/><g transform="translate(7.895 9.218)"><g transform="translate(0 0)" opacity="0.45"><rect width="41.527" height="3.974" transform="translate(41.527 3.974) rotate(180)" fill="#fff"/><rect width="41.527" height="3.974" transform="translate(41.527 9.91) rotate(180)" fill="#fff"/><rect width="41.527" height="3.974" transform="translate(41.527 15.845) rotate(180)" fill="#fff"/><rect width="41.527" height="3.974" transform="translate(41.527 21.629) rotate(180)" fill="#fff"/><rect width="41.527" height="3.974" transform="translate(41.527 27.413) rotate(180)" fill="#fff"/><rect width="41.527" height="3.973" transform="translate(41.527 37.923) rotate(180)" fill="#fff"/><rect width="70.874" height="3.974" transform="translate(70.874 44.182) rotate(180)" fill="#fff"/></g><g transform="translate(44.789 0)"><rect width="26.086" height="30.501" rx="4.313" transform="translate(26.086 30.501) rotate(180)" fill="#62e9e1"/><rect width="26.086" height="3.274" transform="translate(26.086 37.574) rotate(180)" fill="#fff" opacity="0.45"/><g transform="translate(2.07 6.83)"><path d="M488.326,166.276h9.466a1.182,1.182,0,0,0,1.14-.872l1.82-6.723a1.18,1.18,0,0,0-1.139-1.489H486.5a1.18,1.18,0,0,0-1.139,1.489l1.82,6.723A1.182,1.182,0,0,0,488.326,166.276Z" transform="translate(-479.927 -153.314)" fill="#fff"/><path d="M488.189,168.888h11.4a.235.235,0,1,0,0-.47H488.366L484.4,154.583a.234.234,0,0,0-.226-.17h-2.48a.235.235,0,1,0,0,.47H484l3.967,13.835A.234.234,0,0,0,488.189,168.888Z" transform="translate(-481.457 -154.413)" fill="#fff"/><g transform="translate(6.363 14.951)"><path d="M493.2,166.5a1.378,1.378,0,1,0,1.378-1.379A1.378,1.378,0,0,0,493.2,166.5Z" transform="translate(-483.174 -165.125)" fill="#fff"/><path d="M486.016,166.5a1.378,1.378,0,1,0,1.378-1.379A1.378,1.378,0,0,0,486.016,166.5Z" transform="translate(-486.016 -165.125)" fill="#fff"/></g></g></g></g></g><g transform="translate(657.076 270.902)"><ellipse cx="40.044" cy="4.221" rx="40.044" ry="4.221" transform="translate(11.965 193.421)" fill="#f6f7fb"/><path d="M584.29,369.057a10.059,10.059,0,0,1-4.179,3.164c-2.229,1-6.958,1.464-4.331,2.342s5.688.346,7.24.1a31.274,31.274,0,0,1,4.884-.3c2.413-.015,2.433-.165,2.107-2.885C589.563,367.735,585.376,366.941,584.29,369.057Z" transform="translate(-553.772 -177.405)" fill="#676c84"/><path d="M614.491,368.279c-.134.755.938,3.044-.981,4.725s-6.274,3.449-3.386,3.514a16.812,16.812,0,0,0,7.128-1.327c1.467-.726.3-1.868,2.117-2.441,2.4-.758,1.9-2.522.657-3.614C618.428,365.541,614.923,365.835,614.491,368.279Z" transform="translate(-540.255 -177.986)" fill="#c6c7cb"/><path d="M616.345,321.889s5.75-16.907-10.564-30.833c0,0-8.743,3.481-15.744,3.9a38.865,38.865,0,0,1-8.313-.177s-.465,15.02-.484,23.115Z" transform="translate(-551.306 -207.818)" fill="#121e52"/><path d="M580.294,334.8c-.315-7.559,7.88-6.568,10.9-.921,6.25,11.677-2.306,38.57-3.436,51.313a6.49,6.49,0,0,1-4.327.269,3.022,3.022,0,0,1-1.258-1.39C582.359,368.44,580.632,342.884,580.294,334.8Z" transform="translate(-551.683 -192.648)" fill="#121e52"/><path d="M590.908,347.55c-.943,3.087-11.406,6.334-10.557-4.9.376-4.983,1.378-32.5,1.57-35.15s.638-6.529,1.919-7.014c6.411-2.419,17.75,5.963,16.062,15.923C598.777,323.065,592.862,341.149,590.908,347.55Z" transform="translate(-551.677 -204.253)" fill="#121e52"/><path d="M599.831,339.016c-2.529-7.129,5.689-8.391,10.349-4,10.915,10.287,11.338,34.525,14.013,47.037a9.573,9.573,0,0,1-4.772,1.366,1.706,1.706,0,0,1-1.3-.666C613.687,367.764,602.537,346.639,599.831,339.016Z" transform="translate(-544.135 -191.428)" fill="#121e52"/><path d="M613.449,348.788c.286,3.214-8.436,9.858-11.868-.872-1.523-4.759-8.041-32.884-8.857-35.414s-.593-7.756.413-8.686c5.033-4.651,16.393-.561,18.57,9.3C613.164,319.711,612.857,342.122,613.449,348.788Z" transform="translate(-546.958 -203.527)" fill="#121e52"/><g transform="translate(0)"><path d="M575.25,251.326c.3-.314.595-.628.86-.969,2.067-2.644,2.369-4.987,4.284-8.055a23.926,23.926,0,0,1,1.392-2.663,11.137,11.137,0,0,1,3.108-2.547c.895-.469.126,1.5.126,1.5s.759-1.1,1.493-1.023c.286.031.336,1.713.341,2a14.123,14.123,0,0,1-1.569,6.677,3.439,3.439,0,0,0-.534,1.517,3.391,3.391,0,0,0,1.8-.888,2.178,2.178,0,0,1,1.887-.55,5.166,5.166,0,0,1-.363.789c-.817,1.533-1.734,3.164-3.3,3.91-.938.444-2.022.523-2.938,1.01-1.654.879-2.458,2.914-4.137,3.745" transform="translate(-553.676 -229.202)" fill="#f2a181"/><rect width="7.145" height="13.154" rx="0.646" transform="matrix(0.923, 0.386, -0.386, 0.923, 30.709, 8.172)" fill="#5e5dbb"/><rect width="5.99" height="11.742" transform="translate(31.148 9.121) rotate(22.698)" fill="#b4b4db"/><path d="M596.466,258.252a39.059,39.059,0,0,0-7.984,1.348c-5.681,1.706-7.635,4.337-9.6,5.424,3.812-4.843,8.062-15.115,8.062-15.115s-5.125-4.21-5.714-3.213-22.1,26.166-21.425,30.242c.278,1.68,2.768,3.341,4.969,3.266,6.1-.209,13.181-2.429,20.607-4.859,3.265-1.068,4.271,1.234,4.271,1.234" transform="translate(-559.793 -225.433)" fill="#7a74d1"/><path d="M574.512,260.524s-2.709,5.46-3.523,5.816,1.975-1.138,3.5-2.713a32.333,32.333,0,0,0,3.614-5.711A31.361,31.361,0,0,0,574.512,260.524Z" transform="translate(-555.42 -220.933)" fill="#6960c4"/><path d="M580.524,240.829a1.236,1.236,0,0,1,.384.86,6.782,6.782,0,0,1-.1,3.621,5.219,5.219,0,0,1-1.457,1.854,11.4,11.4,0,0,1-2.218,1.516" transform="translate(-552.933 -227.695)" fill="#f2a181"/><path d="M587.259,234.32c-1.438.415-2.2,2.269-2.685,3.54a19.694,19.694,0,0,0-1.073,4.775,6.556,6.556,0,0,0,.233,3.36,7.055,7.055,0,0,0,.938,1.461,3.091,3.091,0,0,0,.676.712,1.042,1.042,0,0,0,.935.159c.448-.172.628-.7.755-1.16a30.567,30.567,0,0,1,3.436-8.691" transform="translate(-550.453 -230.271)" fill="#170d54"/><path d="M585.836,241.474c-.029-.96-1.04-1.587-1.915-.592a6.128,6.128,0,0,0-.959,3.54c-.05,1.383,1.022,1.654,1.9,1.848" transform="translate(-550.624 -227.874)" fill="#f2a181"/><path d="M578.325,259.946c1.774-2.034,7.4-5.388,14.925-5.149,5.182.163,19.3,1.019,20.875,4.486.807,1.773,1.672,19.923.491,26.18-.888,4.706-3.159,16.364-3.159,19.178s1.512,4.02.807,4.836c-1.58,1.83-12.38,2.6-17.451,2.6-4.512,0-12.195-1.2-12.584-2.649-.578-2.145.881-2.066,1.079-4.316s.766-16.854-.061-19.243c-1.495-4.316-2.221-11.353-3.407-14.545C578.938,268.9,576.552,261.98,578.325,259.946Z" transform="translate(-552.712 -222.172)" fill="url(#a)"/><path d="M606.7,269.036c.537,1.119,4.19,6.993,4.19,6.993l.148.7a29.069,29.069,0,0,1-.371,3.138c-.888,4.706-3.159,16.364-3.159,19.178s1.447,3.968.807,4.836c-1.245,1.688-21.61,5.483-20.608.771.091-.426,17.092-13.4,17.183-13.833.783-3.722,1.467-6.405,1.81-9.12C607.525,275.167,606.161,267.916,606.7,269.036Z" transform="translate(-548.761 -216.578)" fill="#6960c4"/><path d="M586.379,251.2s-.047,5.9-.285,6.143a9.308,9.308,0,0,1-1.405.79s.832,5.131,2.117,4.75,9.777-4.669,9.777-4.669-1.2-.49-1.2-.966,1.143-9.762,1.143-9.762" transform="translate(-549.94 -225.063)" fill="#ffbe9d"/><path d="M592.907,234.777c-1.238.338-4.5-.338-5.4,1.012s-1.687,4.612-2.025,5.512c-.671,1.791-1.11,3.706-1.6,5.552-.636,2.406-1.685,6.814.67,8.827a3.134,3.134,0,0,0,1.816.923c1.115.2,2.223.43,3.339.629a11.208,11.208,0,0,0,5.357.114c2.292-.744,3.548-3.9,4.138-6.035l3.374-12.26Z" transform="translate(-550.571 -230.09)" fill="#ffbe9d"/><path d="M586.157,260.162s-.5,23.038-1.435,37.053l3.389,4.672,2.328-5.851a178.147,178.147,0,0,0-2.2-35.713Z" transform="translate(-549.927 -220.044)" fill="#4ddc74"/><path d="M585.191,259.124l.08.317a6.45,6.45,0,0,0,.7,1.707h0l2.08.161s1.412-.741,1.6-1.537-2.32-2.1-2.32-2.1l-.3.119a4.538,4.538,0,0,0-1.81,1.3Z" transform="translate(-549.742 -221.029)" fill="#4ddc74"/><path d="M594.719,253.446a8.681,8.681,0,0,1,2.371,2.4c-1.069,2.445-3.485,6.79-6.147,8.769a12.017,12.017,0,0,0-4.219-5.275S593.975,258.053,594.719,253.446Z" transform="translate(-549.135 -222.702)" fill="#fff"/><path d="M587.929,259.256a8.925,8.925,0,0,0-4.134,3.929,19.763,19.763,0,0,1,.561-7.293s1.7-2.179,2.292-2.223A11.448,11.448,0,0,0,587.929,259.256Z" transform="translate(-550.34 -222.614)" fill="#fff"/><g transform="translate(6.848 34.968)"><path d="M588.432,294.522c-2.575.388-3.527,1.346-4.979,2.779a.536.536,0,0,0-.216.429c.033.205.275.3.48.329,1.2.193,1.39-.572,2.508-1.038.755-.315,1.5-.642,2.255-.969" transform="translate(-557.365 -241.414)" fill="#f2a181"/><g transform="translate(0 29.393)"><g transform="translate(0 3.721)"><path d="M587.024,281.427l9.125,29.246a1.047,1.047,0,0,1-.967,1.467l-19.041,1.671a1.765,1.765,0,0,1-1.6-1.23l-9.812-28.8c-.246-.784.888-1.907,1.653-1.912l19.041-1.671A1.765,1.765,0,0,1,587.024,281.427Z" transform="translate(-564.7 -280.197)" fill="#e9e6ff"/></g><g transform="translate(0.028 4.485)"><path d="M586.391,281.974l9,28.8a1.047,1.047,0,0,1-.967,1.468l-19.041,1.671a1.766,1.766,0,0,1-1.6-1.231l-9-28.794a1.047,1.047,0,0,1,.967-1.468l19.039-1.671A1.767,1.767,0,0,1,586.391,281.974Z" transform="translate(-564.72 -280.744)" fill="#e0d9ff"/></g><g transform="translate(6.488)"><path d="M569.348,281.176l.676,2.525,8.905-.787L578.2,280.4Z" transform="translate(-569.348 -276.395)" fill="#fff"/><path d="M570.588,279.965c.184.588.892,2.856.892,2.856l4.251-.394-.892-2.856a2.891,2.891,0,0,0-2.821-2.032A1.74,1.74,0,0,0,570.588,279.965Zm.942-.059a.976.976,0,0,1,.8-1.361,1.625,1.625,0,0,1,1.583,1.14.976.976,0,0,1-.8,1.361A1.621,1.621,0,0,1,571.53,279.907Z" transform="translate(-568.902 -277.531)" fill="#fff"/></g></g><path d="M595.868,293.059c-2,.416-7.321,2-7.88,2.268a23.585,23.585,0,0,0-3.394,2.51c-2,2.01-.978,2.946-1.768,5.672a1.591,1.591,0,0,0-.049.431c0,.283.384.529.77.264.209.352.828.134,1.128-.248-.006.272.375.444.988.1.331-.183.272-.166,1.037-.849a8.046,8.046,0,0,1,2.166-1.319,15.739,15.739,0,0,0,2.115-.966c.808-.532,2.25-.659,2.962-2.967a2.3,2.3,0,0,1,1.111-1.11l3.255-2.041" transform="translate(-557.546 -241.993)" fill="#ffbe9d"/><path d="M605.338,270.074c.847,3.02,4.37,23.95,4.37,23.95L589.862,308.4l1.651,4.341s23.746-7.973,25.616-13.423,1.784-30.069-4.811-38.705c-2.1-2.75-6.306-4.137-6.306-4.137" transform="translate(-554.742 -256.472)" fill="url(#a)"/><path d="M587.213,298.458a12.753,12.753,0,0,0-1.386,1.066c-.567.6-.992,1.259-1.6,1.974" transform="translate(-556.972 -239.856)" fill="none" stroke="#f2a181" stroke-miterlimit="10" stroke-width="0.25"/><path d="M586.416,297.516a7.17,7.17,0,0,0-1.636,1.983,26.81,26.81,0,0,1-1.3,2.514" transform="translate(-557.268 -240.229)" fill="none" stroke="#f2a181" stroke-miterlimit="10" stroke-width="0.25"/><path d="M585.337,296.754c-.193.308-1.009,1.076-1.174,1.4a12.642,12.642,0,0,0-1.13,3.231" transform="translate(-557.444 -240.531)" fill="none" stroke="#f2a181" stroke-miterlimit="10" stroke-width="0.25"/></g><path d="M600.164,250.514c-.777-.455-1.373-.935-1.88-.19-.268.4-.431.941-.889,1.076a.919.919,0,0,1-1.041-.737,2.669,2.669,0,0,1,.172-1.4q.469-1.507.937-3.016a4.542,4.542,0,0,0,.219-3.02,3.321,3.321,0,0,0-.952-1.22,10.083,10.083,0,0,0-4.631-1.981A49.2,49.2,0,0,1,587.114,239a5.4,5.4,0,0,1-1.9-.955,4.1,4.1,0,0,1-1.346-3.069,6.334,6.334,0,0,1,.974-3.27,5.443,5.443,0,0,0,.5,1.135,4.219,4.219,0,0,1,.909-1.424c.484,2.7,11.855,1.8,14.512,2.99,1.842.825,3.365,1.365,3.309,4.349a1.093,1.093,0,0,0,.36.475c1.632,1.5,2.339,3.323,2.543,6.03.251,3.313-1.678,6.9-3.569,9.631a6.143,6.143,0,0,1-1.4,1.679,3.725,3.725,0,0,1-2.642.6c-.819-.156-2.436-.087-2.451-.921-.011-.6,1.266-1.662,1.619-2.144" transform="translate(-550.264 -231.419)" fill="#3b2e7a"/><path d="M593.418,248.52a1.042,1.042,0,0,0,1.559,1.182,3.594,3.594,0,0,0,2.269-2.783c.268-1.433-.5-2.865-1.813-2.493a1.934,1.934,0,0,0-1.238,1.886" transform="translate(-546.496 -226.295)" fill="#ffbe9d"/><path d="M585.917,250.5l3.648.671a5.087,5.087,0,0,1-3.7,1.364" transform="translate(-549.473 -223.866)" fill="#f2a181"/></g></g><g transform="translate(391.976 217.586)" opacity="0.3"><g transform="translate(15.162 13.878)"><path d="M380.722,206.7l4.887,2.46-2.443-6" transform="translate(-380.722 -203.163)" fill="#4640e1"/></g><path d="M369.859,202.968c0,5.383,4.624,9.748,10.329,9.748s10.328-4.365,10.328-9.748-4.625-9.748-10.328-9.748S369.859,197.584,369.859,202.968Z" transform="translate(-369.859 -193.22)" fill="#4640e1"/><path d="M375.447,198.117v6.968a.73.73,0,0,0,1.1.632l6.034-3.484a.73.73,0,0,0,0-1.265l-6.034-3.484A.73.73,0,0,0,375.447,198.117Z" transform="translate(-367.648 -191.571)" fill="#fefefe"/></g><g transform="translate(739.69 291.704)" opacity="0.3"><g transform="translate(0)"><g transform="translate(0.608 13.877)"><path d="M624.305,259.8l-4.887,2.46,2.443-6" transform="translate(-619.418 -256.265)" fill="#4640e1"/></g><path d="M639.64,256.07c0,5.383-4.624,9.748-10.329,9.748s-10.328-4.364-10.328-9.748,4.624-9.747,10.328-9.747S639.64,250.686,639.64,256.07Z" transform="translate(-618.983 -246.323)" fill="#4640e1"/></g><g transform="translate(4.264 3.201)"><g transform="translate(4.135)"><path d="M625.083,259.831c2.251.036,4.531.066,6.6-.07.655-.043,1.221-1.026.426-1.336a1.448,1.448,0,0,0,.821-.673.653.653,0,0,0-.4-.878c.782.183,1.089-.987.48-1.364a1.713,1.713,0,0,0,.659-1,.977.977,0,0,0-.476-1.03,1.8,1.8,0,0,0-.811-.133l-2.808-.02a5.8,5.8,0,0,0-.415-4.1c-.225-.366-.826-.8-1.3-.522-.448.264-.324.92-.3,1.333A4.626,4.626,0,0,1,625,254.3S625.107,257.962,625.083,259.831Z" transform="translate(-625.001 -248.617)" fill="#fefefe"/></g><rect width="3.402" height="5.526" transform="translate(0 5.683)" fill="#fefefe"/></g></g><g transform="translate(575.655 218.35)" opacity="0.3"><g transform="translate(11.888 2.322)"><path d="M511.3,199.283l3.565-3.852-4.885.957" transform="translate(-509.975 -195.431)" fill="url(#a)"/></g><path d="M501.458,200.836a7.5,7.5,0,1,0,7.491-7.068A7.289,7.289,0,0,0,501.458,200.836Z" transform="translate(-501.458 -193.768)" fill="url(#a)"/><g transform="translate(3.291 2.322)"><g transform="translate(2.709)"><path d="M505.811,203.564c1.475.025,2.967.047,4.324-.052.43-.031.8-.743.279-.969a.978.978,0,0,0,.537-.487.488.488,0,0,0-.261-.636c.512.133.713-.716.314-.99a1.254,1.254,0,0,0,.431-.722.738.738,0,0,0-.311-.748,1.073,1.073,0,0,0-.532-.095l-1.84-.015a4.622,4.622,0,0,0-.271-2.976c-.148-.265-.542-.582-.856-.378-.293.191-.212.667-.2.967a3.418,3.418,0,0,1-1.673,3.089S505.827,202.209,505.811,203.564Z" transform="translate(-505.757 -195.431)" fill="#fefefe"/></g><rect width="2.229" height="4.008" transform="translate(0 4.121)" fill="#fefefe"/></g></g><g transform="translate(604.05 154.918)" opacity="0.3"><path d="M541.489,166.261a11.025,11.025,0,1,0-2.512,2.311l4.279,2.282Z" transform="translate(-521.802 -148.321)" fill="#0057ff"/><path d="M526.611,154.3a2.7,2.7,0,0,1,3.816.039l.688.7.708-.7a2.7,2.7,0,1,1,3.785,3.845l-2.624,2.585-.015.018a2.7,2.7,0,0,1-3.816-.04l-2.582-2.637A2.7,2.7,0,0,1,526.611,154.3Z" transform="translate(-520.22 -146.262)" fill="#fff"/></g></g></g></svg>